# xmcd
#
# Track frame offsets:
#	150
#	18822
#	35552
#	59510
#	74860
#	87517
#	104845
#	126165
#	147982
#	165885
#
# Disc length: 2421 seconds
#
# Revision: 0
# Processed by: cddbd v1.4PL0 Copyright (c) Steve Scherf et al.
# Submitted via: EasyCDDAExtractor 4.6.9.1
#
DISCID=9209730a
DTITLE=Kim Carnes - Lighthouse
DYEAR=1986
DGENRE=
TTITLE0=Divided Hearts
TTITLE1=I'd Lie to You For Your Love
TTITLE2=Black and White
TTITLE3=Piece of the Sky
TTITLE4=You Say You Love Me (But I Know You Don't)
TTITLE5=Dancin' at the Lighthouse
TTITLE6=Love Me Like You Never Did Before
TTITLE7=Along With the Radio
TTITLE8=Only Lonely Love
TTITLE9=That's Where the Trouble Lies
EXTD=
EXTT0=
EXTT1=
EXTT2=
EXTT3=
EXTT4=
EXTT5=
EXTT6=
EXTT7=
EXTT8=
EXTT9=
PLAYORDER=
